/* XPM */
static char * coin_2_xpm[] = {
"64 64 9 1",
" 	c #A8D04F",
".	c #75A443",
"+	c #88C448",
"@	c #DEE863",
"#	c #25131A",
"$	c #C09344",
"%	c #FFF1CC",
"&	c #FFD569",
"*	c #7BA542",
"    ....    ............++++....@@@@++++    ++++    ............",
"    ....    ............++++....@@@@++++    ++++    ............",
"    ....    ............++++....@@@@++++    ++++    ............",
"    ....    ............++++....@@@@++++    ++++    ............",
"    ....++++++++@@@@    @@@@    @@@@        @@@@++++@@@@....    ",
"    ....++++++++@@@@    @@@@    @@@@        @@@@++++@@@@....    ",
"    ....++++++++@@@@    @@@@    @@@@        @@@@++++@@@@....    ",
"    ....++++++++@@@@    @@@@    @@@@        @@@@++++@@@@....    ",
"        ........        ....    @@@@@@@@@@@@++++++++@@@@        ",
"        ........        ....    @@@@@@@@@@@@++++++++@@@@        ",
"        ........        ....    @@@@@@@@@@@@++++++++@@@@        ",
"        ........        ....    @@@@@@@@@@@@++++++++@@@@        ",
"........    ++++    ........########    @@@@@@@@....    ++++    ",
"........    ++++    ........########    @@@@@@@@....    ++++    ",
"........    ++++    ........########    @@@@@@@@....    ++++    ",
"........    ++++    ........########    @@@@@@@@....    ++++    ",
"............            ####$$$$$$$$####@@@@@@@@                ",
"............            ####$$$$$$$$####@@@@@@@@                ",
"............            ####$$$$$$$$####@@@@@@@@                ",
"............            ####$$$$$$$$####@@@@@@@@                ",
"    ++++@@@@....    ####$$$$%%%%&&&&$$$$####                ....",
"    ++++@@@@....    ####$$$$%%%%&&&&$$$$####                ....",
"    ++++@@@@....    ####$$$$%%%%&&&&$$$$####                ....",
"    ++++@@@@....    ####$$$$%%%%&&&&$$$$####                ....",
"........@@@@++++####$$$$%%%%%%%%&&&&%%%%$$$$####            ....",
"........@@@@++++####$$$$%%%%%%%%&&&&%%%%$$$$####            ....",
"........@@@@++++####$$$$%%%%%%%%&&&&%%%%$$$$####            ....",
"........@@@@++++####$$$$%%%%%%%%&&&&%%%%$$$$####            ....",
"++++    @@@@    ####$$$$%%%%$$$$$$$$&&&&$$$$####....++++++++    ",
"++++    @@@@    ####$$$$%%%%$$$$$$$$&&&&$$$$####....++++++++    ",
"++++    @@@@    ####$$$$%%%%$$$$$$$$&&&&$$$$####....++++++++    ",
"++++    @@@@    ####$$$$%%%%$$$$$$$$&&&&$$$$####....++++++++    ",
"....    ........####$$$$&&&&$$$$$$$$&&&&$$$$####    ++++++++    ",
"....    ........####$$$$&&&&$$$$$$$$&&&&$$$$####    ++++++++    ",
"....    ........####$$$$&&&&$$$$$$$$&&&&$$$$####    ++++++++    ",
"....    ........####$$$$&&&&$$$$$$$$&&&&$$$$####    ++++++++    ",
"            ++++####$$$$%%%%&&&&&&&&&&&&$$$$####    ........    ",
"            ++++####$$$$%%%%&&&&&&&&&&&&$$$$####    ........    ",
"            ++++####$$$$%%%%&&&&&&&&&&&&$$$$####    ........    ",
"            ++++####$$$$%%%%&&&&&&&&&&&&$$$$####    ........    ",
"            ++++    ####$$$$&&&&&&&&$$$$####....++++++++        ",
"            ++++    ####$$$$&&&&&&&&$$$$####....++++++++        ",
"            ++++    ####$$$$&&&&&&&&$$$$####....++++++++        ",
"            ++++    ####$$$$&&&&&&&&$$$$####....++++++++        ",
"            @@@@....    ####$$$$$$$$####++++++++........        ",
"            @@@@....    ####$$$$$$$$####++++++++........        ",
"            @@@@....    ####$$$$$$$$####++++++++........        ",
"            @@@@....    ####$$$$$$$$####++++++++........        ",
"****    ++++++++++++@@@@    ########++++................    ....",
"****    ++++++++++++@@@@    ########++++................    ....",
"****    ++++++++++++@@@@    ########++++................    ....",
"****    ++++++++++++@@@@    ########++++................    ....",
"        ++++++++    @@@@        ....@@@@                        ",
"        ++++++++    @@@@        ....@@@@                        ",
"        ++++++++    @@@@        ....@@@@                        ",
"        ++++++++    @@@@        ....@@@@                        ",
"    ............    ........++++....@@@@@@@@    @@@@....        ",
"    ............    ........++++....@@@@@@@@    @@@@....        ",
"    ............    ........++++....@@@@@@@@    @@@@....        ",
"    ............    ........++++....@@@@@@@@    @@@@....        ",
"@@@@        ....    ....++++++++    @@@@@@@@....@@@@++++++++@@@@",
"@@@@        ....    ....++++++++    @@@@@@@@....@@@@++++++++@@@@",
"@@@@        ....    ....++++++++    @@@@@@@@....@@@@++++++++@@@@",
"@@@@        ....    ....++++++++    @@@@@@@@....@@@@++++++++@@@@"};
