/* XPM */
static char * door_closed_xpm[] = {
"64 64 12 1",
" 	c #677598",
".	c #21110D",
"+	c #755338",
"@	c #503625",
"#	c #342319",
"$	c #E9CE7C",
"%	c #D99945",
"&	c #000000",
"*	c #A8D04F",
"=	c #75A443",
"-	c #88C448",
";	c #DEE863",
"    ........................................................    ",
"    ........................................................    ",
"    ........................................................    ",
"    ........................................................    ",
"....++++++++++++++++++++++++++++++++++++++++++++++++++++++++....",
"....++++++++++++++++++++++++++++++++++++++++++++++++++++++++....",
"....++++++++++++++++++++++++++++++++++++++++++++++++++++++++....",
"....++++++++++++++++++++++++++++++++++++++++++++++++++++++++....",
"....++++++++++++++++++++++++++++++++++++++++++++++++++++++++....",
"....++++++++++++++++++++++++++++++++++++++++++++++++++++++++....",
"....++++++++++++++++++++++++++++++++++++++++++++++++++++++++....",
"....++++++++++++++++++++++++++++++++++++++++++++++++++++++++....",
"....@@@@################################################@@@@....",
"....@@@@################################################@@@@....",
"....@@@@################################################@@@@....",
"....@@@@################################################@@@@....",
"....++++####@@@@@@@@####@@@@@@@@@@@@@@@@####@@@@@@@@####++++....",
"....++++####@@@@@@@@####@@@@@@@@@@@@@@@@####@@@@@@@@####++++....",
"....++++####@@@@@@@@####@@@@@@@@@@@@@@@@####@@@@@@@@####++++....",
"....++++####@@@@@@@@####@@@@@@@@@@@@@@@@####@@@@@@@@####++++....",
"....++++####@@@@@@@@@@@@@@@@@@@@@@@@@@@@####@@@@@@@@####++++....",
"....++++####@@@@@@@@@@@@@@@@@@@@@@@@@@@@####@@@@@@@@####++++....",
"....++++####@@@@@@@@@@@@@@@@@@@@@@@@@@@@####@@@@@@@@####++++....",
"....++++####@@@@@@@@@@@@@@@@@@@@@@@@@@@@####@@@@@@@@####++++....",
"....++++####@@@@@@@@@@@@@@@@@@@@@@@@@@@@@@@@@@@@@@@@####++++....",
"....++++####@@@@@@@@@@@@@@@@@@@@@@@@@@@@@@@@@@@@@@@@####++++....",
"....++++####@@@@@@@@@@@@@@@@@@@@@@@@@@@@@@@@@@@@@@@@####++++....",
"....++++####@@@@@@@@@@@@@@@@@@@@@@@@@@@@@@@@@@@@@@@@####++++....",
"....++++####@@@@@@@@@@@@@@@@@@@@@@@@@@@@@@@@@@@@@@@@####++++....",
"....++++####@@@@@@@@@@@@@@@@@@@@@@@@@@@@@@@@@@@@@@@@####++++....",
"....++++####@@@@@@@@@@@@@@@@@@@@@@@@@@@@@@@@@@@@@@@@####++++....",
"....++++####@@@@@@@@@@@@@@@@@@@@@@@@@@@@@@@@@@@@@@@@####++++....",
"....++++####@@@@@@@@@@@@@@@@@@@@@@@@@@@@@@@@$$$$%%%%####++++....",
"....++++####@@@@@@@@@@@@@@@@@@@@@@@@@@@@@@@@$$$$%%%%####++++....",
"....++++####@@@@@@@@@@@@@@@@@@@@@@@@@@@@@@@@$$$$%%%%####++++....",
"....++++####@@@@@@@@@@@@@@@@@@@@@@@@@@@@@@@@$$$$%%%%####++++....",
"....++++####@@@@@@@@@@@@@@@@@@@@@@@@@@@@@@@@%%%%%%%%####++++....",
"....++++####@@@@@@@@@@@@@@@@@@@@@@@@@@@@@@@@%%%%%%%%####++++....",
"....++++####@@@@@@@@@@@@@@@@@@@@@@@@@@@@@@@@%%%%%%%%####++++....",
"....++++####@@@@@@@@@@@@@@@@@@@@@@@@@@@@@@@@%%%%%%%%####++++....",
"....++++####@@@@@@@@@@@@@@@@@@@@@@@@@@@@@@@@############++++....",
"....++++####@@@@@@@@@@@@@@@@@@@@@@@@@@@@@@@@############++++....",
"....++++####@@@@@@@@@@@@@@@@@@@@@@@@@@@@@@@@############++++....",
"....++++####@@@@@@@@@@@@@@@@@@@@@@@@@@@@@@@@############++++....",
"....++++####@@@@@@@@####@@@@@@@@@@@@@@@@@@@@@@@@@@@@####++++....",
"....++++####@@@@@@@@####@@@@@@@@@@@@@@@@@@@@@@@@@@@@####++++....",
"....++++####@@@@@@@@####@@@@@@@@@@@@@@@@@@@@@@@@@@@@####++++....",
"....++++####@@@@@@@@####@@@@@@@@@@@@@@@@@@@@@@@@@@@@####++++....",
"....++++####@@@@@@@@####@@@@@@@@@@@@@@@@@@@@@@@@@@@@####++++....",
"....++++####@@@@@@@@####@@@@@@@@@@@@@@@@@@@@@@@@@@@@####++++....",
"....++++####@@@@@@@@####@@@@@@@@@@@@@@@@@@@@@@@@@@@@####++++....",
"....++++####@@@@@@@@####@@@@@@@@@@@@@@@@@@@@@@@@@@@@####++++....",
"....++++####@@@@@@@@####@@@@@@@@@@@@@@@@####@@@@@@@@####++++....",
"....++++####@@@@@@@@####@@@@@@@@@@@@@@@@####@@@@@@@@####++++....",
"....++++####@@@@@@@@####@@@@@@@@@@@@@@@@####@@@@@@@@####++++....",
"....++++####@@@@@@@@####@@@@@@@@@@@@@@@@####@@@@@@@@####++++....",
"....&&&&&&&&&&&&&&&&&&&&&&&&&&&&&&&&&&&&&&&&&&&&&&&&&&&&&&&&....",
"....&&&&&&&&&&&&&&&&&&&&&&&&&&&&&&&&&&&&&&&&&&&&&&&&&&&&&&&&....",
"....&&&&&&&&&&&&&&&&&&&&&&&&&&&&&&&&&&&&&&&&&&&&&&&&&&&&&&&&....",
"....&&&&&&&&&&&&&&&&&&&&&&&&&&&&&&&&&&&&&&&&&&&&&&&&&&&&&&&&....",
"&&&&********====****====--------****;;;;;;;;====;;;;--------&&&&",
"&&&&********====****====--------****;;;;;;;;====;;;;--------&&&&",
"&&&&********====****====--------****;;;;;;;;====;;;;--------&&&&",
"&&&&********====****====--------****;;;;;;;;====;;;;--------&&&&"};
