/* XPM */
static char * door_b_xpm[] = {
"64 64 10 1",
" 	c #677598",
".	c #21110D",
"+	c #755338",
"@	c #503625",
"#	c #342319",
"$	c #000000",
"%	c #A8D04F",
"&	c #75A443",
"*	c #88C448",
"=	c #DEE863",
"    ........................................................    ",
"    ........................................................    ",
"    ........................................................    ",
"    ........................................................    ",
"....++++++++++++++++++++++++++++++++++++++++++++++++++++++++....",
"....++++++++++++++++++++++++++++++++++++++++++++++++++++++++....",
"....++++++++++++++++++++++++++++++++++++++++++++++++++++++++....",
"....++++++++++++++++++++++++++++++++++++++++++++++++++++++++....",
"....++++++++++++++++++++++++++++++++++++++++++++++++++++++++....",
"....++++++++++++++++++++++++++++++++++++++++++++++++++++++++....",
"....++++++++++++++++++++++++++++++++++++++++++++++++++++++++....",
"....++++++++++++++++++++++++++++++++++++++++++++++++++++++++....",
"....@@@@################################################@@@@....",
"....@@@@################################################@@@@....",
"....@@@@################################################@@@@....",
"....@@@@################################################@@@@....",
"....++++####@@@@$$$$$$$$$$$$$$$$$$$$$$$$$$$$$$$$$$$$$$$$++++....",
"....++++####@@@@$$$$$$$$$$$$$$$$$$$$$$$$$$$$$$$$$$$$$$$$++++....",
"....++++####@@@@$$$$$$$$$$$$$$$$$$$$$$$$$$$$$$$$$$$$$$$$++++....",
"....++++####@@@@$$$$$$$$$$$$$$$$$$$$$$$$$$$$$$$$$$$$$$$$++++....",
"....++++####@@@@$$$$$$$$$$$$$$$$$$$$$$$$$$$$$$$$$$$$$$$$++++....",
"....++++####@@@@$$$$$$$$$$$$$$$$$$$$$$$$$$$$$$$$$$$$$$$$++++....",
"....++++####@@@@$$$$$$$$$$$$$$$$$$$$$$$$$$$$$$$$$$$$$$$$++++....",
"....++++####@@@@$$$$$$$$$$$$$$$$$$$$$$$$$$$$$$$$$$$$$$$$++++....",
"....++++####@@@@$$$$$$$$$$$$$$$$$$$$$$$$$$$$$$$$$$$$$$$$++++....",
"....++++####@@@@$$$$$$$$$$$$$$$$$$$$$$$$$$$$$$$$$$$$$$$$++++....",
"....++++####@@@@$$$$$$$$$$$$$$$$$$$$$$$$$$$$$$$$$$$$$$$$++++....",
"....++++####@@@@$$$$$$$$$$$$$$$$$$$$$$$$$$$$$$$$$$$$$$$$++++....",
"....++++####@@@@$$$$$$$$$$$$$$$$$$$$$$$$$$$$$$$$$$$$$$$$++++....",
"....++++####@@@@$$$$$$$$$$$$$$$$$$$$$$$$$$$$$$$$$$$$$$$$++++....",
"....++++####@@@@$$$$$$$$$$$$$$$$$$$$$$$$$$$$$$$$$$$$$$$$++++....",
"....++++####@@@@$$$$$$$$$$$$$$$$$$$$$$$$$$$$$$$$$$$$$$$$++++....",
"....++++####@@@@$$$$$$$$$$$$$$$$$$$$$$$$$$$$$$$$$$$$$$$$++++....",
"....++++####@@@@$$$$$$$$$$$$$$$$$$$$$$$$$$$$$$$$$$$$$$$$++++....",
"....++++####@@@@$$$$$$$$$$$$$$$$$$$$$$$$$$$$$$$$$$$$$$$$++++....",
"....++++####@@@@$$$$$$$$$$$$$$$$$$$$$$$$$$$$$$$$$$$$$$$$++++....",
"....++++####@@@@$$$$$$$$$$$$$$$$$$$$$$$$$$$$$$$$$$$$$$$$++++....",
"....++++####@@@@$$$$$$$$$$$$$$$$$$$$$$$$$$$$$$$$$$$$$$$$++++....",
"....++++####@@@@$$$$$$$$$$$$$$$$$$$$$$$$$$$$$$$$$$$$$$$$++++....",
"....++++####@@@@$$$$$$$$$$$$$$$$$$$$$$$$$$$$$$$$$$$$$$$$++++....",
"....++++####@@@@$$$$$$$$$$$$$$$$$$$$$$$$$$$$$$$$$$$$$$$$++++....",
"....++++####@@@@$$$$$$$$$$$$$$$$$$$$$$$$$$$$$$$$$$$$$$$$++++....",
"....++++####@@@@$$$$$$$$$$$$$$$$$$$$$$$$$$$$$$$$$$$$$$$$++++....",
"....++++####@@@@$$$$$$$$$$$$$$$$$$$$$$$$$$$$$$$$$$$$$$$$++++....",
"....++++####@@@@$$$$$$$$$$$$$$$$$$$$$$$$$$$$$$$$$$$$$$$$++++....",
"....++++####@@@@$$$$$$$$$$$$$$$$$$$$$$$$$$$$$$$$$$$$$$$$++++....",
"....++++####@@@@$$$$$$$$$$$$$$$$$$$$$$$$$$$$$$$$$$$$$$$$++++....",
"....++++####@@@@$$$$$$$$$$$$$$$$$$$$$$$$$$$$$$$$$$$$$$$$++++....",
"....++++####@@@@$$$$$$$$$$$$$$$$$$$$$$$$$$$$$$$$$$$$$$$$++++....",
"....++++####@@@@$$$$$$$$$$$$$$$$$$$$$$$$$$$$$$$$$$$$$$$$++++....",
"....++++####@@@@$$$$$$$$$$$$$$$$$$$$$$$$$$$$$$$$$$$$$$$$++++....",
"....++++####@@@@$$$$$$$$$$$$$$$$$$$$$$$$$$$$$$$$$$$$$$$$++++....",
"....++++####@@@@$$$$$$$$$$$$$$$$$$$$$$$$$$$$$$$$$$$$$$$$++++....",
"....++++####@@@@$$$$$$$$$$$$$$$$$$$$$$$$$$$$$$$$$$$$$$$$++++....",
"....++++####@@@@$$$$$$$$$$$$$$$$$$$$$$$$$$$$$$$$$$$$$$$$++++....",
"....++++####@@@@$$$$$$$$$$$$$$$$$$$$$$$$$$$$$$$$$$$$$$$$++++....",
"....$$$$$$$$$$$$$$$$$$$$$$$$$$$$$$$$$$$$$$$$$$$$$$$$$$$$$$$$....",
"....$$$$$$$$$$$$$$$$$$$$$$$$$$$$$$$$$$$$$$$$$$$$$$$$$$$$$$$$....",
"....$$$$$$$$$$$$$$$$$$$$$$$$$$$$$$$$$$$$$$$$$$$$$$$$$$$$$$$$....",
"....$$$$$$$$$$$$$$$$$$$$$$$$$$$$$$$$$$$$$$$$$$$$$$$$$$$$$$$$....",
"&&&&%%%%%%%%&&&&%%%%&&&&********%%%%========&&&&====********&&&&",
"&&&&%%%%%%%%&&&&%%%%&&&&********%%%%========&&&&====********&&&&",
"&&&&%%%%%%%%&&&&%%%%&&&&********%%%%========&&&&====********&&&&",
"&&&&%%%%%%%%&&&&%%%%&&&&********%%%%========&&&&====********&&&&"};
