/* XPM */
static char *_7a79fc3fbfe434b99553343420c50a8H1k9nkk3Q0DRx6p1[] = {
/* columns rows colors chars-per-pixel */
"64 64 5 1 ",
"  c #75A443",
". c #7BA542",
"X c #88C448",
"o c #A8D04F",
"O c #DEE863",
/* pixels */
"oooo    oooo            XXXX    OOOOXXXXooooXXXXoooo            ",
"oooo    oooo            XXXX    OOOOXXXXooooXXXXoooo            ",
"oooo    oooo            XXXX    OOOOXXXXooooXXXXoooo            ",
"oooo    oooo            XXXX    OOOOXXXXooooXXXXoooo            ",
"oooo    XXXXXXXXOOOOooooOOOOooooOOOOooooooooOOOOXXXXOOOO    oooo",
"oooo    XXXXXXXXOOOOooooOOOOooooOOOOooooooooOOOOXXXXOOOO    oooo",
"oooo    XXXXXXXXOOOOooooOOOOooooOOOOooooooooOOOOXXXXOOOO    oooo",
"oooo    XXXXXXXXOOOOooooOOOOooooOOOOooooooooOOOOXXXXOOOO    oooo",
"oooooooo        oooooooo    ooooOOOOOOOOOOOOXXXXXXXXOOOOoooooooo",
"oooooooo        oooooooo    ooooOOOOOOOOOOOOXXXXXXXXOOOOoooooooo",
"oooooooo        oooooooo    ooooOOOOOOOOOOOOXXXXXXXXOOOOoooooooo",
"oooooooo        oooooooo    ooooOOOOOOOOOOOOXXXXXXXXOOOOoooooooo",
"        ooooXXXXoooo        ooooOOOOooooOOOOOOOO    ooooXXXXoooo",
"        ooooXXXXoooo        ooooOOOOooooOOOOOOOO    ooooXXXXoooo",
"        ooooXXXXoooo        ooooOOOOooooOOOOOOOO    ooooXXXXoooo",
"        ooooXXXXoooo        ooooOOOOooooOOOOOOOO    ooooXXXXoooo",
"            ooooooooooooooooooooOOOOooooOOOOOOOOoooooooooooooooo",
"            ooooooooooooooooooooOOOOooooOOOOOOOOoooooooooooooooo",
"            ooooooooooooooooooooOOOOooooOOOOOOOOoooooooooooooooo",
"            ooooooooooooooooooooOOOOooooOOOOOOOOoooooooooooooooo",
"ooooXXXXOOOO    ooooooooOOOOOOOOXXXXXXXXXXXXoooooooooooooooo    ",
"ooooXXXXOOOO    ooooooooOOOOOOOOXXXXXXXXXXXXoooooooooooooooo    ",
"ooooXXXXOOOO    ooooooooOOOOOOOOXXXXXXXXXXXXoooooooooooooooo    ",
"ooooXXXXOOOO    ooooooooOOOOOOOOXXXXXXXXXXXXoooooooooooooooo    ",
"        OOOOXXXXXXXXOOOOOOOOOOOOXXXXXXXXoooooooooooooooooooo    ",
"        OOOOXXXXXXXXOOOOOOOOOOOOXXXXXXXXoooooooooooooooooooo    ",
"        OOOOXXXXXXXXOOOOOOOOOOOOXXXXXXXXoooooooooooooooooooo    ",
"        OOOOXXXXXXXXOOOOOOOOOOOOXXXXXXXXoooooooooooooooooooo    ",
"XXXXooooOOOOooooooooOOOOOOOOooooooooooooOOOOoooo    XXXXXXXXoooo",
"XXXXooooOOOOooooooooOOOOOOOOooooooooooooOOOOoooo    XXXXXXXXoooo",
"XXXXooooOOOOooooooooOOOOOOOOooooooooooooOOOOoooo    XXXXXXXXoooo",
"XXXXooooOOOOooooooooOOOOOOOOooooooooooooOOOOoooo    XXXXXXXXoooo",
"    oooo        XXXXXXXXOOOOOOOOooooooooXXXXXXXXooooXXXXXXXXoooo",
"    oooo        XXXXXXXXOOOOOOOOooooooooXXXXXXXXooooXXXXXXXXoooo",
"    oooo        XXXXXXXXOOOOOOOOooooooooXXXXXXXXooooXXXXXXXXoooo",
"    oooo        XXXXXXXXOOOOOOOOooooooooXXXXXXXXooooXXXXXXXXoooo",
"ooooooooooooXXXXXXXXooooOOOOXXXXXXXX    oooo    oooo        oooo",
"ooooooooooooXXXXXXXXooooOOOOXXXXXXXX    oooo    oooo        oooo",
"ooooooooooooXXXXXXXXooooOOOOXXXXXXXX    oooo    oooo        oooo",
"ooooooooooooXXXXXXXXooooOOOOXXXXXXXX    oooo    oooo        oooo",
"ooooooooooooXXXXoooooooooooooooo    oooooooo    XXXXXXXXoooooooo",
"ooooooooooooXXXXoooooooooooooooo    oooooooo    XXXXXXXXoooooooo",
"ooooooooooooXXXXoooooooooooooooo    oooooooo    XXXXXXXXoooooooo",
"ooooooooooooXXXXoooooooooooooooo    oooooooo    XXXXXXXXoooooooo",
"ooooooooooooOOOO    oooooooo....XXXXXXXXXXXXXXXX        oooooooo",
"ooooooooooooOOOO    oooooooo....XXXXXXXXXXXXXXXX        oooooooo",
"ooooooooooooOOOO    oooooooo....XXXXXXXXXXXXXXXX        oooooooo",
"ooooooooooooOOOO    oooooooo....XXXXXXXXXXXXXXXX        oooooooo",
"....ooooXXXXXXXXXXXXOOOOooooooooXXXXXXXX                oooo    ",
"....ooooXXXXXXXXXXXXOOOOooooooooXXXXXXXX                oooo    ",
"....ooooXXXXXXXXXXXXOOOOooooooooXXXXXXXX                oooo    ",
"....ooooXXXXXXXXXXXXOOOOooooooooXXXXXXXX                oooo    ",
"ooooooooXXXXXXXXooooOOOOoooooooo    OOOOoooooooooooooooooooooooo",
"ooooooooXXXXXXXXooooOOOOoooooooo    OOOOoooooooooooooooooooooooo",
"ooooooooXXXXXXXXooooOOOOoooooooo    OOOOoooooooooooooooooooooooo",
"ooooooooXXXXXXXXooooOOOOoooooooo    OOOOoooooooooooooooooooooooo",
"oooo            oooo        XXXX    OOOOOOOOooooOOOO    oooooooo",
"oooo            oooo        XXXX    OOOOOOOOooooOOOO    oooooooo",
"oooo            oooo        XXXX    OOOOOOOOooooOOOO    oooooooo",
"oooo            oooo        XXXX    OOOOOOOOooooOOOO    oooooooo",
"OOOOoooooooo    oooo    XXXXXXXXooooOOOOOOOO    OOOOXXXXXXXXOOOO",
"OOOOoooooooo    oooo    XXXXXXXXooooOOOOOOOO    OOOOXXXXXXXXOOOO",
"OOOOoooooooo    oooo    XXXXXXXXooooOOOOOOOO    OOOOXXXXXXXXOOOO",
"OOOOoooooooo    oooo    XXXXXXXXooooOOOOOOOO    OOOOXXXXXXXXOOOO"
};
