/* XPM */
static char * hero_r3_xpm[] = {
"64 64 17 1",
" 	c #A8D04F",
".	c #75A443",
"+	c #88C448",
"@	c #DEE863",
"#	c #504838",
"$	c #987858",
"%	c #A0A070",
"&	c #C26D36",
"*	c #F7B16D",
"=	c #F7F7D4",
"-	c #3D1900",
";	c #482000",
">	c #6D3620",
",	c #7BA542",
"'	c #28150D",
")	c #8E8E5E",
"!	c #3D3629",
"    ....    ............++++....@@@@++++    ++++    ............",
"    ....    ............++++....@@@@++++    ++++    ............",
"    ....    ............++++....@@@@++++    ++++    ............",
"    ....    ............++++....@@@@++++    ++++    ............",
"    ....++++++++@@@@################        @@@@++++@@@@....    ",
"    ....++++++++@@@@################        @@@@++++@@@@....    ",
"    ....++++++++@@@@################        @@@@++++@@@@....    ",
"    ....++++++++@@@@################        @@@@++++@@@@....    ",
"        ........####$$$$$$$$$$$$$$$$################@@@@        ",
"        ........####$$$$$$$$$$$$$$$$################@@@@        ",
"        ........####$$$$$$$$$$$$$$$$################@@@@        ",
"        ........####$$$$$$$$$$$$$$$$################@@@@        ",
"........    ++++####%%%%%%%%$$$$$$$$%%%%%%%%$$$$####    ++++    ",
"........    ++++####%%%%%%%%$$$$$$$$%%%%%%%%$$$$####    ++++    ",
"........    ++++####%%%%%%%%$$$$$$$$%%%%%%%%$$$$####    ++++    ",
"........    ++++####%%%%%%%%$$$$$$$$%%%%%%%%$$$$####    ++++    ",
"............############$$$$%%%%%%%%$$$$$$$$####$$$$########    ",
"............############$$$$%%%%%%%%$$$$$$$$####$$$$########    ",
"............############$$$$%%%%%%%%$$$$$$$$####$$$$########    ",
"............############$$$$%%%%%%%%$$$$$$$$####$$$$########    ",
"    ++++@@@@################################&&&&$$$$####    ....",
"    ++++@@@@################################&&&&$$$$####    ....",
"    ++++@@@@################################&&&&$$$$####    ....",
"    ++++@@@@################################&&&&$$$$####    ....",
"........########################&&&&&&&&********####        ....",
"........########################&&&&&&&&********####        ....",
"........########################&&&&&&&&********####        ....",
"........########################&&&&&&&&********####        ....",
"++++    @@@@############****####&&&&====----****####++++++++    ",
"++++    @@@@############****####&&&&====----****####++++++++    ",
"++++    @@@@############****####&&&&====----****####++++++++    ",
"++++    @@@@############****####&&&&====----****####++++++++    ",
"....    ........########&&&&####&&&&====----****    ++++++++    ",
"....    ........########&&&&####&&&&====----****    ++++++++    ",
"....    ........########&&&&####&&&&====----****    ++++++++    ",
"....    ........########&&&&####&&&&====----****    ++++++++    ",
"            ++++;;;;####&&&&&&&&&&&&&&&&********    ........    ",
"            ++++;;;;####&&&&&&&&&&&&&&&&********    ........    ",
"            ++++;;;;####&&&&&&&&&&&&&&&&********    ........    ",
"            ++++;;;;####&&&&&&&&&&&&&&&&********    ........    ",
"            ;;;;>>>>;;;;;;;;&&&&&&&&&&&&&&&&&&&&++++++++        ",
"            ;;;;>>>>;;;;;;;;&&&&&&&&&&&&&&&&&&&&++++++++        ",
"            ;;;;>>>>;;;;;;;;&&&&&&&&&&&&&&&&&&&&++++++++        ",
"            ;;;;>>>>;;;;;;;;&&&&&&&&&&&&&&&&&&&&++++++++        ",
"            ;;;;>>>>$$$$$$$$;;;;;;;;;;;;++++++++........        ",
"            ;;;;>>>>$$$$$$$$;;;;;;;;;;;;++++++++........        ",
"            ;;;;>>>>$$$$$$$$;;;;;;;;;;;;++++++++........        ",
"            ;;;;>>>>$$$$$$$$;;;;;;;;;;;;++++++++........        ",
",,,,    ;;;;;;;;>>>>>>>>>>>>>>>>****''''................    ....",
",,,,    ;;;;;;;;>>>>>>>>>>>>>>>>****''''................    ....",
",,,,    ;;;;;;;;>>>>>>>>>>>>>>>>****''''................    ....",
",,,,    ;;;;;;;;>>>>>>>>>>>>>>>>****''''................    ....",
"        ;;;;;;;;;;;;>>>>>>>>&&&&&&&&''''''''                    ",
"        ;;;;;;;;;;;;>>>>>>>>&&&&&&&&''''''''                    ",
"        ;;;;;;;;;;;;>>>>>>>>&&&&&&&&''''''''                    ",
"        ;;;;;;;;;;;;>>>>>>>>&&&&&&&&''''''''                    ",
"    ........'''';;;;))))''''''''''''!!!!;;;;    @@@@....        ",
"    ........'''';;;;))))''''''''''''!!!!;;;;    @@@@....        ",
"    ........'''';;;;))))''''''''''''!!!!;;;;    @@@@....        ",
"    ........'''';;;;))))''''''''''''!!!!;;;;    @@@@....        ",
"@@@@        ....''''>>>>++++'''''''';;;;@@@@....@@@@++++++++@@@@",
"@@@@        ....''''>>>>++++'''''''';;;;@@@@....@@@@++++++++@@@@",
"@@@@        ....''''>>>>++++'''''''';;;;@@@@....@@@@++++++++@@@@",
"@@@@        ....''''>>>>++++'''''''';;;;@@@@....@@@@++++++++@@@@"};
