/* XPM */
static char * hero_d2_xpm[] = {
"64 64 16 1",
" 	c #A8D04F",
".	c #75A443",
"+	c #504838",
"@	c #88C448",
"#	c #A0A070",
"$	c #987858",
"%	c #DEE863",
"&	c #C26D36",
"*	c #F7B16D",
"=	c #F7F7D4",
"-	c #3D1900",
";	c #C1C198",
">	c #482000",
",	c #6D3620",
"'	c #28150D",
")	c #7BA542",
"    ....    ............++++++++++++++++    @@@@    ............",
"    ....    ............++++++++++++++++    @@@@    ............",
"    ....    ............++++++++++++++++    @@@@    ............",
"    ....    ............++++++++++++++++    @@@@    ............",
"    ....@@@@@@@@++++++++++++####$$$$$$$$++++++++@@@@%%%%....    ",
"    ....@@@@@@@@++++++++++++####$$$$$$$$++++++++@@@@%%%%....    ",
"    ....@@@@@@@@++++++++++++####$$$$$$$$++++++++@@@@%%%%....    ",
"    ....@@@@@@@@++++++++++++####$$$$$$$$++++++++@@@@%%%%....    ",
"        ....++++$$$$####++++####$$$$$$$$$$$$$$$$++++%%%%        ",
"        ....++++$$$$####++++####$$$$$$$$$$$$$$$$++++%%%%        ",
"        ....++++$$$$####++++####$$$$$$$$$$$$$$$$++++%%%%        ",
"        ....++++$$$$####++++####$$$$$$$$$$$$$$$$++++%%%%        ",
"........    ++++$$$$####++++####++++$$$$$$$$++++++++    @@@@    ",
"........    ++++$$$$####++++####++++$$$$$$$$++++++++    @@@@    ",
"........    ++++$$$$####++++####++++$$$$$$$$++++++++    @@@@    ",
"........    ++++$$$$####++++####++++$$$$$$$$++++++++    @@@@    ",
"............++++$$$$++++++++++++&&&&++++++++++++++++            ",
"............++++$$$$++++++++++++&&&&++++++++++++++++            ",
"............++++$$$$++++++++++++&&&&++++++++++++++++            ",
"............++++$$$$++++++++++++&&&&++++++++++++++++            ",
"    @@@@++++++++++++&&&&++++&&&&****&&&&&&&&++++++++        ....",
"    @@@@++++++++++++&&&&++++&&&&****&&&&&&&&++++++++        ....",
"    @@@@++++++++++++&&&&++++&&&&****&&&&&&&&++++++++        ....",
"    @@@@++++++++++++&&&&++++&&&&****&&&&&&&&++++++++        ....",
"........%%%%&&&&&&&&====----********----;;;;++++&&&&        ....",
"........%%%%&&&&&&&&====----********----;;;;++++&&&&        ....",
"........%%%%&&&&&&&&====----********----;;;;++++&&&&        ....",
"........%%%%&&&&&&&&====----********----;;;;++++&&&&        ....",
"@@@@    %%%%&&&&****====----********----;;;;++++&&&&@@@@@@@@    ",
"@@@@    %%%%&&&&****====----********----;;;;++++&&&&@@@@@@@@    ",
"@@@@    %%%%&&&&****====----********----;;;;++++&&&&@@@@@@@@    ",
"@@@@    %%%%&&&&****====----********----;;;;++++&&&&@@@@@@@@    ",
"....    ........****************&&&&&&&&&&&&&&&&    @@@@@@@@    ",
"....    ........****************&&&&&&&&&&&&&&&&    @@@@@@@@    ",
"....    ........****************&&&&&&&&&&&&&&&&    @@@@@@@@    ",
"....    ........****************&&&&&&&&&&&&&&&&    @@@@@@@@    ",
"            @@@@>>>>************&&&&&&&&&&&&>>>>    ........    ",
"            @@@@>>>>************&&&&&&&&&&&&>>>>    ........    ",
"            @@@@>>>>************&&&&&&&&&&&&>>>>    ........    ",
"            @@@@>>>>************&&&&&&&&&&&&>>>>    ........    ",
"            >>>>>>>>,,,,$$$$>>>>>>>>>>>>>>>>>>>>>>>>@@@@        ",
"            >>>>>>>>,,,,$$$$>>>>>>>>>>>>>>>>>>>>>>>>@@@@        ",
"            >>>>>>>>,,,,$$$$>>>>>>>>>>>>>>>>>>>>>>>>@@@@        ",
"            >>>>>>>>,,,,$$$$>>>>>>>>>>>>>>>>>>>>>>>>@@@@        ",
"            >>>>'''''''',,,,,,,,,,,,,,,,''''''''>>>>....        ",
"            >>>>'''''''',,,,,,,,,,,,,,,,''''''''>>>>....        ",
"            >>>>'''''''',,,,,,,,,,,,,,,,''''''''>>>>....        ",
"            >>>>'''''''',,,,,,,,,,,,,,,,''''''''>>>>....        ",
"))))    @@@@>>>>''''&&&&++++++++++++++++&&&&''''>>>>....    ....",
"))))    @@@@>>>>''''&&&&++++++++++++++++&&&&''''>>>>....    ....",
"))))    @@@@>>>>''''&&&&++++++++++++++++&&&&''''>>>>....    ....",
"))))    @@@@>>>>''''&&&&++++++++++++++++&&&&''''>>>>....    ....",
"        @@@@>>>>'''''''',,,,,,,,>>>>>>>>''''''''>>>>            ",
"        @@@@>>>>'''''''',,,,,,,,>>>>>>>>''''''''>>>>            ",
"        @@@@>>>>'''''''',,,,,,,,>>>>>>>>''''''''>>>>            ",
"        @@@@>>>>'''''''',,,,,,,,>>>>>>>>''''''''>>>>            ",
"    ............>>>>''''''''''''''''''''''''>>>>%%%%....        ",
"    ............>>>>''''''''''''''''''''''''>>>>%%%%....        ",
"    ............>>>>''''''''''''''''''''''''>>>>%%%%....        ",
"    ............>>>>''''''''''''''''''''''''>>>>%%%%....        ",
"%%%%        ....    ....@@@@@@@@    %%%%%%%%....%%%%@@@@@@@@%%%%",
"%%%%        ....    ....@@@@@@@@    %%%%%%%%....%%%%@@@@@@@@%%%%",
"%%%%        ....    ....@@@@@@@@    %%%%%%%%....%%%%@@@@@@@@%%%%",
"%%%%        ....    ....@@@@@@@@    %%%%%%%%....%%%%@@@@@@@@%%%%"};
