/* XPM */
static char * hero_u3_xpm[] = {
"64 64 11 1",
" 	c #A8D04F",
".	c #75A443",
"+	c #88C448",
"@	c #DEE863",
"#	c #504838",
"$	c #987858",
"%	c #A0A070",
"&	c #6D3620",
"*	c #482000",
"=	c #7BA542",
"-	c #28150D",
"    ....    ............++++....@@@@++++    ++++    ............",
"    ....    ............++++....@@@@++++    ++++    ............",
"    ....    ............++++....@@@@++++    ++++    ............",
"    ....    ............++++....@@@@++++    ++++    ............",
"    ....++++++++@@@@    ################    @@@@++++@@@@....    ",
"    ....++++++++@@@@    ################    @@@@++++@@@@....    ",
"    ....++++++++@@@@    ################    @@@@++++@@@@....    ",
"    ....++++++++@@@@    ################    @@@@++++@@@@....    ",
"        ........########$$$$####%%%%$$$$########++++@@@@        ",
"        ........########$$$$####%%%%$$$$########++++@@@@        ",
"        ........########$$$$####%%%%$$$$########++++@@@@        ",
"        ........########$$$$####%%%%$$$$########++++@@@@        ",
"........    ####$$$$%%%%$$$$####%%%%$$$$$$$$########    ++++    ",
"........    ####$$$$%%%%$$$$####%%%%$$$$$$$$########    ++++    ",
"........    ####$$$$%%%%$$$$####%%%%$$$$$$$$########    ++++    ",
"........    ####$$$$%%%%$$$$####%%%%$$$$$$$$########    ++++    ",
"............####$$$$%%%%$$$$$$$$####$$$$$$$$########            ",
"............####$$$$%%%%$$$$$$$$####$$$$$$$$########            ",
"............####$$$$%%%%$$$$$$$$####$$$$$$$$########            ",
"............####$$$$%%%%$$$$$$$$####$$$$$$$$########            ",
"    ++++@@@@####$$$$$$$$####$$$$####$$$$############        ....",
"    ++++@@@@####$$$$$$$$####$$$$####$$$$############        ....",
"    ++++@@@@####$$$$$$$$####$$$$####$$$$############        ....",
"    ++++@@@@####$$$$$$$$####$$$$####$$$$############        ....",
"........@@@@########$$$$####$$$$####$$$$################    ....",
"........@@@@########$$$$####$$$$####$$$$################    ....",
"........@@@@########$$$$####$$$$####$$$$################    ....",
"........@@@@########$$$$####$$$$####$$$$################    ....",
"++++    @@@@    ####$$$$$$$$########################++++++++    ",
"++++    @@@@    ####$$$$$$$$########################++++++++    ",
"++++    @@@@    ####$$$$$$$$########################++++++++    ",
"++++    @@@@    ####$$$$$$$$########################++++++++    ",
"....    ........####################$$$$########    ++++++++    ",
"....    ........####################$$$$########    ++++++++    ",
"....    ........####################$$$$########    ++++++++    ",
"....    ........####################$$$$########    ++++++++    ",
"            &&&&****########################****    ........    ",
"            &&&&****########################****    ........    ",
"            &&&&****########################****    ........    ",
"            &&&&****########################****    ........    ",
"            ****&&&&****************************++++++++        ",
"            ****&&&&****************************++++++++        ",
"            ****&&&&****************************++++++++        ",
"            ****&&&&****************************++++++++        ",
"        ********&&&&&&&&$$$$************************....        ",
"        ********&&&&&&&&$$$$************************....        ",
"        ********&&&&&&&&$$$$************************....        ",
"        ********&&&&&&&&$$$$************************....        ",
"====    $$$$&&&&&&&&$$$$$$$$$$$$****************$$$$....    ....",
"====    $$$$&&&&&&&&$$$$$$$$$$$$****************$$$$....    ....",
"====    $$$$&&&&&&&&$$$$$$$$$$$$****************$$$$....    ....",
"====    $$$$&&&&&&&&$$$$$$$$$$$$****************$$$$....    ....",
"        ++++$$$$$$$$--------$$$$$$$$$$$$$$$$$$$$                ",
"        ++++$$$$$$$$--------$$$$$$$$$$$$$$$$$$$$                ",
"        ++++$$$$$$$$--------$$$$$$$$$$$$$$$$$$$$                ",
"        ++++$$$$$$$$--------$$$$$$$$$$$$$$$$$$$$                ",
"    ............----&&&&****----------------    @@@@....        ",
"    ............----&&&&****----------------    @@@@....        ",
"    ............----&&&&****----------------    @@@@....        ",
"    ............----&&&&****----------------    @@@@....        ",
"@@@@        ....    --------++++--------@@@@....@@@@++++++++@@@@",
"@@@@        ....    --------++++--------@@@@....@@@@++++++++@@@@",
"@@@@        ....    --------++++--------@@@@....@@@@++++++++@@@@",
"@@@@        ....    --------++++--------@@@@....@@@@++++++++@@@@"};
