/* XPM */
static char * slime_2_xpm[] = {
"64 64 18 1",
" 	c #A8D04F",
".	c #75A443",
"+	c #88C448",
"@	c #DEE863",
"#	c #1D235D",
"$	c #4D8AB3",
"%	c #65B1B8",
"&	c #FFFFFF",
"*	c #000000",
"=	c #425B9E",
"-	c #33418A",
";	c #9E2E46",
">	c #7B993B",
",	c #597932",
"'	c #639036",
")	c #557833",
"!	c #7BA542",
"~	c #A3AA49",
"    ....    ............++++....@@@@++++    ++++    ............",
"    ....    ............++++....@@@@++++    ++++    ............",
"    ....    ............++++....@@@@++++    ++++    ............",
"    ....    ............++++....@@@@++++    ++++    ............",
"    ....++++++++@@@@    @@@@    @@@@        @@@@++++@@@@....    ",
"    ....++++++++@@@@    @@@@    @@@@        @@@@++++@@@@....    ",
"    ....++++++++@@@@    @@@@    @@@@        @@@@++++@@@@....    ",
"    ....++++++++@@@@    @@@@    @@@@        @@@@++++@@@@....    ",
"        ........        ....    @@@@@@@@@@@@++++++++@@@@        ",
"        ........        ....    @@@@@@@@@@@@++++++++@@@@        ",
"        ........        ....    @@@@@@@@@@@@++++++++@@@@        ",
"        ........    ################################@@@@        ",
"........    ++++    ################################    ++++    ",
"........    ++++    ################################    ++++    ",
"........    ++++    ################################    ++++    ",
"........    ########$$$$$$$$%%%%%%%%%%%%%%%%%%%%$$$$####++++    ",
"............########$$$$$$$$%%%%%%%%%%%%%%%%%%%%$$$$####        ",
"............########$$$$$$$$%%%%%%%%%%%%%%%%%%%%$$$$####        ",
"............########$$$$$$$$%%%%%%%%%%%%%%%%%%%%$$$$####        ",
"........####$$$$%%%%%%%%%%%%%%%%%%%%%%%%%%%%%%%%%%%%$$$$####    ",
"    ++++####$$$$%%%%%%%%%%%%%%%%%%%%%%%%%%%%%%%%%%%%$$$$####....",
"    ++++####$$$$%%%%%%%%%%%%%%%%%%%%%%%%%%%%%%%%%%%%$$$$####....",
"    ++++####$$$$%%%%%%%%%%%%%%%%%%%%%%%%%%%%%%%%%%%%$$$$####....",
"    ####$$$$%%%%%%%%%%%%%%%%&&&&****%%%%%%%%****%%%%%%%%====####",
"....####$$$$%%%%%%%%%%%%%%%%&&&&****%%%%%%%%****%%%%%%%%====####",
"....####$$$$%%%%%%%%%%%%%%%%&&&&****%%%%%%%%****%%%%%%%%====####",
"....####$$$$%%%%%%%%%%%%%%%%&&&&****%%%%%%%%****%%%%%%%%====####",
"####====$$$$%%%%%%%%%%%%%%%%********%%%%%%%%****%%%%%%%%$$$$####",
"####====$$$$%%%%%%%%%%%%%%%%********%%%%%%%%****%%%%%%%%$$$$####",
"####====$$$$%%%%%%%%%%%%%%%%********%%%%%%%%****%%%%%%%%$$$$####",
"####====$$$$%%%%%%%%%%%%%%%%********%%%%%%%%****%%%%%%%%$$$$####",
"####====$$$$%%%%%%%%--------%%%%%%%%%%%%%%%%%%%%%%%%----$$$$####",
"####====$$$$%%%%%%%%--------%%%%%%%%%%%%%%%%%%%%%%%%----$$$$####",
"####====$$$$%%%%%%%%--------%%%%%%%%%%%%%%%%%%%%%%%%----$$$$####",
"####====$$$$%%%%%%%%--------%%%%%%%%%%%%%%%%%%%%%%%%----$$$$####",
"####====$$$$%%%%%%%%%%%%----------------------------%%%%$$$$####",
"####====$$$$%%%%%%%%%%%%----------------------------%%%%$$$$####",
"####====$$$$%%%%%%%%%%%%----------------------------%%%%$$$$####",
"####====$$$$%%%%%%%%%%%%----------------------------%%%%$$$$####",
"####========$$$$%%%%%%%%%%%%;;;;;;;;--------%%%%%%%%$$$$====####",
"####========$$$$%%%%%%%%%%%%;;;;;;;;--------%%%%%%%%$$$$====####",
"####========$$$$%%%%%%%%%%%%;;;;;;;;--------%%%%%%%%$$$$====####",
"####========$$$$%%%%%%%%%%%%;;;;;;;;--------%%%%%%%%$$$$====####",
">>>>####========$$$$$$$$$$$$$$$$$$$$$$$$$$$$$$$$$$$$========####",
">>>>####========$$$$$$$$$$$$$$$$$$$$$$$$$$$$$$$$$$$$========####",
">>>>####========$$$$$$$$$$$$$$$$$$$$$$$$$$$$$$$$$$$$========####",
">>>>####========$$$$$$$$$$$$$$$$$$$$$$$$$$$$$$$$$$$$========####",
">>>>>>>>>>>>============================================####>>>>",
",,,,>>>>''''============================================####))))",
",,,,>>>>''''============================================####))))",
",,,,>>>>''''============================================####))))",
"!!!!>>>>''''''''''''~~~~>>>>>>>>''''''''))))))))))))))))>>>>....",
"    >>>>''''''''>>>>~~~~>>>>>>>>))))~~~~>>>>>>>>>>>>>>>>>>>>    ",
"    >>>>''''''''>>>>~~~~>>>>>>>>))))~~~~>>>>>>>>>>>>>>>>>>>>    ",
"    >>>>''''''''>>>>~~~~>>>>>>>>))))~~~~>>>>>>>>>>>>>>>>>>>>    ",
"        ++++++++    @@@@        ....@@@@                        ",
"    ............    ........++++....@@@@@@@@    @@@@....        ",
"    ............    ........++++....@@@@@@@@    @@@@....        ",
"    ............    ........++++....@@@@@@@@    @@@@....        ",
"    ............    ........++++....@@@@@@@@    @@@@....        ",
"@@@@        ....    ....++++++++    @@@@@@@@....@@@@++++++++@@@@",
"@@@@        ....    ....++++++++    @@@@@@@@....@@@@++++++++@@@@",
"@@@@        ....    ....++++++++    @@@@@@@@....@@@@++++++++@@@@",
"@@@@        ....    ....++++++++    @@@@@@@@....@@@@++++++++@@@@"};
