/* XPM */
static char * slime_1_xpm[] = {
"64 64 17 1",
" 	c #A8D04F",
".	c #75A443",
"+	c #88C448",
"@	c #DEE863",
"#	c #1D235D",
"$	c #425B9E",
"%	c #4D8AB3",
"&	c #65B1B8",
"*	c #FFFFFF",
"=	c #000000",
"-	c #33418A",
";	c #7B993B",
">	c #9E2E46",
",	c #597932",
"'	c #639036",
")	c #557833",
"!	c #A3AA49",
"    ....    ............++++....@@@@++++    ++++    ............",
"    ....    ............++++....@@@@++++    ++++    ............",
"    ....    ............++++....@@@@++++    ++++    ............",
"    ....    ............++++....@@@@++++    ++++    ............",
"    ....++++++++@@@@    @@@@    @@@@        @@@@++++@@@@....    ",
"    ....++++++++@@@@    @@@@    @@@@        @@@@++++@@@@....    ",
"    ....++++++++@@@@    @@@@    @@@@        @@@@++++@@@@....    ",
"    ....++++++++@@@@    @@@@    @@@@        @@@@++++@@@@....    ",
"        .......################################+++++@@@@        ",
"        .......################################+++++@@@@        ",
"        .......################################+++++@@@@        ",
"        .......################################+++++@@@@        ",
"........   ####$$$$%%%%%%%%%%%%%%%%%%%%%%%%%%%%####.    ++++    ",
"........   ####$$$$%%%%%%%%%%%%%%%%%%%%%%%%%%%%####.    ++++    ",
"........   ####$$$$%%%%%%%%%%%%%%%%%%%%%%%%%%%%####.    ++++    ",
"........   ####$$$$%%%%%%%%%%%%%%%%%%%%%%%%%%%%####.    ++++    ",
".......####$$$$%%%%%%%%%%%%&&&&&&&&&&&&&&&&&&&&$$$$####         ",
".......####$$$$%%%%%%%%%%%%&&&&&&&&&&&&&&&&&&&&$$$$####         ",
".......####$$$$%%%%%%%%%%%%&&&&&&&&&&&&&&&&&&&&$$$$####         ",
".......####$$$$%%%%%%%%%%%%&&&&&&&&&&&&&&&&&&&&$$$$####         ",
"    +++####%%%%%%%%&&&&&&&&&&&&&&&&&&&&&&&&&&&&&&&&####     ....",
"    +++####%%%%%%%%&&&&&&&&&&&&&&&&&&&&&&&&&&&&&&&&####     ....",
"    +++####%%%%%%%%&&&&&&&&&&&&&&&&&&&&&&&&&&&&&&&&####     ....",
"    +++####%%%%%%%%&&&&&&&&&&&&&&&&&&&&&&&&&&&&&&&&####     ....",
".......####%%%%&&&&&&&&&&&&****====&&&&&&&&====&&&&$$$$#### ....",
".......####%%%%&&&&&&&&&&&&****====&&&&&&&&====&&&&$$$$#### ....",
".......####%%%%&&&&&&&&&&&&****====&&&&&&&&====&&&&$$$$#### ....",
".......####%%%%&&&&&&&&&&&&****====&&&&&&&&====&&&&$$$$#### ....",
"+++####$$$$%%%%&&&&&&&&&&&&========&&&&&&&&====&&&&%%%%####+    ",
"+++####$$$$%%%%&&&&&&&&&&&&========&&&&&&&&====&&&&%%%%####+    ",
"+++####$$$$%%%%&&&&&&&&&&&&========&&&&&&&&====&&&&%%%%####+    ",
"+++####$$$$%%%%&&&&&&&&&&&&========&&&&&&&&====&&&&%%%%####+    ",
"...####$$$$%%%%&&&&--------&&&&&&&&&&&&&&&&&&&&----%%%%####+    ",
"...####$$$$%%%%&&&&--------&&&&&&&&&&&&&&&&&&&&----%%%%####+    ",
"...####$$$$%%%%&&&&--------&&&&&&&&&&&&&&&&&&&&----%%%%####+    ",
"...####$$$$%%%%&&&&--------&&&&&&&&&&&&&&&&&&&&----%%%%####+    ",
"   ####$$$$%%%%&&&&&&&&------------------------&&&&%%%%####.    ",
"   ####$$$$%%%%&&&&&&&&------------------------&&&&%%%%####.    ",
"   ####$$$$%%%%&&&&&&&&------------------------&&&&%%%%####.    ",
"   ####$$$$%%%%&&&&&&&&------------------------&&&&%%%%####.    ",
";;;####$$$$$$$$%%%%&&&&&&&&>>>>>>>>--------&&&&%%%%$$$$####;;;; ",
";;;####$$$$$$$$%%%%&&&&&&&&>>>>>>>>--------&&&&%%%%$$$$####;;;; ",
";;;####$$$$$$$$%%%%&&&&&&&&>>>>>>>>--------&&&&%%%%$$$$####;;;; ",
";;;####$$$$$$$$%%%%&&&&&&&&>>>>>>>>--------&&&&%%%%$$$$####;;;; ",
";;;;;;;####$$$$$$$$%%%%%%%%%%%%%%%%%%%%%%%%%%%%$$$$$$$$####;;;; ",
";;;;;;;####$$$$$$$$%%%%%%%%%%%%%%%%%%%%%%%%%%%%$$$$$$$$####;;;; ",
";;;;;;;####$$$$$$$$%%%%%%%%%%%%%%%%%%%%%%%%%%%%$$$$$$$$####;;;; ",
";;;;;;;####$$$$$$$$%%%%%%%%%%%%%%%%%%%%%%%%%%%%$$$$$$$$####;;;; ",
",,,,;;;;'''''''$$$$$$$$$$$$$$$$$$$$$$$$$$$$$$$$$$$$####);;;;))).",
",,,,;;;;'''''''$$$$$$$$$$$$$$$$$$$$$$$$$$$$$$$$$$$$####);;;;))).",
",,,,;;;;'''''''$$$$$$$$$$$$$$$$$$$$$$$$$$$$$$$$$$$$####);;;;))).",
",,,,;;;;'''''''$$$$$$$$$$$$$$$$$$$$$$$$$$$$$$$$$$$$####);;;;))).",
"   ;;;;;'''''''';;;;!!!!;;;;;;;;))))!!!!;;;;;;;;;;;;;;;;;;;     ",
"   ;;;;;'''''''';;;;!!!!;;;;;;;;))))!!!!;;;;;;;;;;;;;;;;;;;     ",
"   ;;;;;'''''''';;;;!!!!;;;;;;;;))))!!!!;;;;;;;;;;;;;;;;;;;     ",
"   ;;;;;'''''''';;;;!!!!;;;;;;;;))))!!!!;;;;;;;;;;;;;;;;;;;     ",
"    ............    ........++++....@@@@@@@@    @@@@....        ",
"    ............    ........++++....@@@@@@@@    @@@@....        ",
"    ............    ........++++....@@@@@@@@    @@@@....        ",
"    ............    ........++++....@@@@@@@@    @@@@....        ",
"@@@@        ....    ....++++++++    @@@@@@@@....@@@@++++++++@@@@",
"@@@@        ....    ....++++++++    @@@@@@@@....@@@@++++++++@@@@",
"@@@@        ....    ....++++++++    @@@@@@@@....@@@@++++++++@@@@",
"@@@@        ....    ....++++++++    @@@@@@@@....@@@@++++++++@@@@"};
