/* XPM */
static char * slime_l1_xpm[] = {
"64 64 17 1",
" 	c #75A443",
".	c #A8D04F",
"+	c #88C448",
"@	c #DEE863",
"#	c #1D235D",
"$	c #4D8AB3",
"%	c #425B9E",
"&	c #65B1B8",
"*	c #000000",
"=	c #FFFFFF",
"-	c #33418A",
";	c #7B993B",
">	c #9E2E46",
",	c #557833",
"'	c #639036",
")	c #597932",
"!	c #A3AA49",
"            ....++++....++++@@@@    ++++            ....    ....",
"            ....++++....++++@@@@    ++++            ....    ....",
"            ....++++....++++@@@@    ++++            ....    ....",
"            ....++++....++++@@@@    ++++            ....    ....",
"....    @@@@++++@@@@........@@@@....@@@@....@@@@++++++++    ....",
"....    @@@@++++@@@@........@@@@....@@@@....@@@@++++++++    ....",
"....    @@@@++++@@@@........@@@@....@@@@....@@@@++++++++    ....",
"....    @@@@++++@@@@........@@@@....@@@@....@@@@++++++++    ....",
"........@@@@+++++################################       ........",
"........@@@@+++++################################       ........",
"........@@@@+++++################################       ........",
"........@@@@+++++################################       ........",
"....++++.... ####$$$$$$$$$$$$$$$$$$$$$$$$$$$$%%%%####...        ",
"....++++.... ####$$$$$$$$$$$$$$$$$$$$$$$$$$$$%%%%####...        ",
"....++++.... ####$$$$$$$$$$$$$$$$$$$$$$$$$$$$%%%%####...        ",
"....++++.... ####$$$$$$$$$$$$$$$$$$$$$$$$$$$$%%%%####...        ",
".........####%%%%&&&&&&&&&&&&&&&&&&&&$$$$$$$$$$$$%%%%####       ",
".........####%%%%&&&&&&&&&&&&&&&&&&&&$$$$$$$$$$$$%%%%####       ",
".........####%%%%&&&&&&&&&&&&&&&&&&&&$$$$$$$$$$$$%%%%####       ",
".........####%%%%&&&&&&&&&&&&&&&&&&&&$$$$$$$$$$$$%%%%####       ",
"    .....####&&&&&&&&&&&&&&&&&&&&&&&&&&&&&&&&$$$$$$$$####+++....",
"    .....####&&&&&&&&&&&&&&&&&&&&&&&&&&&&&&&&$$$$$$$$####+++....",
"    .....####&&&&&&&&&&&&&&&&&&&&&&&&&&&&&&&&$$$$$$$$####+++....",
"    .....####&&&&&&&&&&&&&&&&&&&&&&&&&&&&&&&&$$$$$$$$####+++....",
"    .####%%%%&&&&****&&&&&&&&****====&&&&&&&&&&&&$$$$####       ",
"    .####%%%%&&&&****&&&&&&&&****====&&&&&&&&&&&&$$$$####       ",
"    .####%%%%&&&&****&&&&&&&&****====&&&&&&&&&&&&$$$$####       ",
"    .####%%%%&&&&****&&&&&&&&****====&&&&&&&&&&&&$$$$####       ",
"....+####$$$$&&&&****&&&&&&&&********&&&&&&&&&&&&$$$$%%%%####+++",
"....+####$$$$&&&&****&&&&&&&&********&&&&&&&&&&&&$$$$%%%%####+++",
"....+####$$$$&&&&****&&&&&&&&********&&&&&&&&&&&&$$$$%%%%####+++",
"....+####$$$$&&&&****&&&&&&&&********&&&&&&&&&&&&$$$$%%%%####+++",
"....+####$$$$----&&&&&&&&&&&&&&&&&&&&--------&&&&$$$$%%%%####   ",
"....+####$$$$----&&&&&&&&&&&&&&&&&&&&--------&&&&$$$$%%%%####   ",
"....+####$$$$----&&&&&&&&&&&&&&&&&&&&--------&&&&$$$$%%%%####   ",
"....+####$$$$----&&&&&&&&&&&&&&&&&&&&--------&&&&$$$$%%%%####   ",
".... ####$$$$&&&&------------------------&&&&&&&&$$$$%%%%####...",
".... ####$$$$&&&&------------------------&&&&&&&&$$$$%%%%####...",
".... ####$$$$&&&&------------------------&&&&&&&&$$$$%%%%####...",
".... ####$$$$&&&&------------------------&&&&&&&&$$$$%%%%####...",
".;;;;####%%%%$$$$&&&&-------->>>>>>>>&&&&&&&&$$$$%%%%%%%%####;;;",
".;;;;####%%%%$$$$&&&&-------->>>>>>>>&&&&&&&&$$$$%%%%%%%%####;;;",
".;;;;####%%%%$$$$&&&&-------->>>>>>>>&&&&&&&&$$$$%%%%%%%%####;;;",
".;;;;####%%%%$$$$&&&&-------->>>>>>>>&&&&&&&&$$$$%%%%%%%%####;;;",
".;;;;####%%%%%%%%$$$$$$$$$$$$$$$$$$$$$$$$$$$$%%%%%%%%####;;;;;;;",
".;;;;####%%%%%%%%$$$$$$$$$$$$$$$$$$$$$$$$$$$$%%%%%%%%####;;;;;;;",
".;;;;####%%%%%%%%$$$$$$$$$$$$$$$$$$$$$$$$$$$$%%%%%%%%####;;;;;;;",
".;;;;####%%%%%%%%$$$$$$$$$$$$$$$$$$$$$$$$$$$$%%%%%%%%####;;;;;;;",
" ,,,;;;;,####%%%%%%%%%%%%%%%%%%%%%%%%%%%%%%%%%%%%''''''';;;;))))",
" ,,,;;;;,####%%%%%%%%%%%%%%%%%%%%%%%%%%%%%%%%%%%%''''''';;;;))))",
" ,,,;;;;,####%%%%%%%%%%%%%%%%%%%%%%%%%%%%%%%%%%%%''''''';;;;))))",
" ,,,;;;;,####%%%%%%%%%%%%%%%%%%%%%%%%%%%%%%%%%%%%''''''';;;;))))",
".....;;;;;;;;;;;;;;;;;;;!!!!,,,,;;;;;;;;!!!!;;;;'''''''';;;;;...",
".....;;;;;;;;;;;;;;;;;;;!!!!,,,,;;;;;;;;!!!!;;;;'''''''';;;;;...",
".....;;;;;;;;;;;;;;;;;;;!!!!,,,,;;;;;;;;!!!!;;;;'''''''';;;;;...",
".....;;;;;;;;;;;;;;;;;;;!!!!,,,,;;;;;;;;!!!!;;;;'''''''';;;;;...",
"........    @@@@....@@@@@@@@    ++++        ....            ....",
"........    @@@@....@@@@@@@@    ++++        ....            ....",
"........    @@@@....@@@@@@@@    ++++        ....            ....",
"........    @@@@....@@@@@@@@    ++++        ....            ....",
"@@@@++++++++@@@@    @@@@@@@@....++++++++    ....    ........@@@@",
"@@@@++++++++@@@@    @@@@@@@@....++++++++    ....    ........@@@@",
"@@@@++++++++@@@@    @@@@@@@@....++++++++    ....    ........@@@@",
"@@@@++++++++@@@@    @@@@@@@@....++++++++    ....    ........@@@@"};
