/* XPM */
static char *d5a28d893e034745c345f9fcd98455587usBybBeeCO7pYAJ[] = {
/* columns rows colors chars-per-pixel */
"64 64 4 1 ",
"  c black",
". c #242A3D",
"X c #414B66",
"o c #677598",
/* pixels */
"XXXX........................................XXXXXXXXXXXXXXXXXXXX",
"XXXX........................................XXXXXXXXXXXXXXXXXXXX",
"XXXX........................................XXXXXXXXXXXXXXXXXXXX",
"XXXX........................................XXXXXXXXXXXXXXXXXXXX",
"oooooooooooooooo............oooooooooooooooo........XXXXoooooooo",
"oooooooooooooooo............oooooooooooooooo........XXXXoooooooo",
"oooooooooooooooo............oooooooooooooooo........XXXXoooooooo",
"oooooooooooooooo............oooooooooooooooo........XXXXoooooooo",
"ooooXXXXXXXXXXXXoooo....ooooooooooooXXXXXXXXXXXX....oooooooooooo",
"ooooXXXXXXXXXXXXoooo....ooooooooooooXXXXXXXXXXXX....oooooooooooo",
"ooooXXXXXXXXXXXXoooo....ooooooooooooXXXXXXXXXXXX....oooooooooooo",
"ooooXXXXXXXXXXXXoooo....ooooooooooooXXXXXXXXXXXX....oooooooooooo",
"XXXXXXXXXXXXXXXXXXXX....ooooooooXXXXXXXXXXXXXXXX....ooooXXXXXXXX",
"XXXXXXXXXXXXXXXXXXXX....ooooooooXXXXXXXXXXXXXXXX....ooooXXXXXXXX",
"XXXXXXXXXXXXXXXXXXXX....ooooooooXXXXXXXXXXXXXXXX....ooooXXXXXXXX",
"XXXXXXXXXXXXXXXXXXXX....ooooooooXXXXXXXXXXXXXXXX....ooooXXXXXXXX",
"XXXXXXXXXXXXXXXXXXXX....XXXXXXXXooooXXXXXXXXXXXX....XXXXooooXXXX",
"XXXXXXXXXXXXXXXXXXXX....XXXXXXXXooooXXXXXXXXXXXX....XXXXooooXXXX",
"XXXXXXXXXXXXXXXXXXXX....XXXXXXXXooooXXXXXXXXXXXX....XXXXooooXXXX",
"XXXXXXXXXXXXXXXXXXXX....XXXXXXXXooooXXXXXXXXXXXX....XXXXooooXXXX",
"....XXXXXXXXXXXX............XXXXXXXXXXXXXXXX............XXXXXXXX",
"....XXXXXXXXXXXX............XXXXXXXXXXXXXXXX............XXXXXXXX",
"....XXXXXXXXXXXX............XXXXXXXXXXXXXXXX............XXXXXXXX",
"....XXXXXXXXXXXX............XXXXXXXXXXXXXXXX............XXXXXXXX",
"ooooooooooooooooXXXX............................................",
"ooooooooooooooooXXXX............................................",
"ooooooooooooooooXXXX............................................",
"ooooooooooooooooXXXX............................................",
"ooooooooXXXXXXXXoooo....XXXXoooooooooooooooo........XXXXoooooooo",
"ooooooooXXXXXXXXoooo....XXXXoooooooooooooooo........XXXXoooooooo",
"ooooooooXXXXXXXXoooo....XXXXoooooooooooooooo........XXXXoooooooo",
"ooooooooXXXXXXXXoooo....XXXXoooooooooooooooo........XXXXoooooooo",
"XXXXXXXXXXXXXXXXXXXXXXXXoooooooooooooooooooooooo....ooooooooXXXX",
"XXXXXXXXXXXXXXXXXXXXXXXXoooooooooooooooooooooooo....ooooooooXXXX",
"XXXXXXXXXXXXXXXXXXXXXXXXoooooooooooooooooooooooo....ooooooooXXXX",
"XXXXXXXXXXXXXXXXXXXXXXXXoooooooooooooooooooooooo....ooooooooXXXX",
"XXXXXXXXXXXXXXXXXXXXooooooooooooXXXXXXXXXXXXXXXX....ooooXXXXXXXX",
"XXXXXXXXXXXXXXXXXXXXooooooooooooXXXXXXXXXXXXXXXX....ooooXXXXXXXX",
"XXXXXXXXXXXXXXXXXXXXooooooooooooXXXXXXXXXXXXXXXX....ooooXXXXXXXX",
"XXXXXXXXXXXXXXXXXXXXooooooooooooXXXXXXXXXXXXXXXX....ooooXXXXXXXX",
"XXXXXXXXXXXXXXXX....ooooXXXXXXXXXXXXXXXXXXXXXXXX....XXXXXXXXXXXX",
"XXXXXXXXXXXXXXXX....ooooXXXXXXXXXXXXXXXXXXXXXXXX....XXXXXXXXXXXX",
"XXXXXXXXXXXXXXXX....ooooXXXXXXXXXXXXXXXXXXXXXXXX....XXXXXXXXXXXX",
"XXXXXXXXXXXXXXXX....ooooXXXXXXXXXXXXXXXXXXXXXXXX....XXXXXXXXXXXX",
"    ....................XXXXXXXXXXXXXXXXXXXXXXXX................",
"    ....................XXXXXXXXXXXXXXXXXXXXXXXX................",
"    ....................XXXXXXXXXXXXXXXXXXXXXXXX................",
"    ....................XXXXXXXXXXXXXXXXXXXXXXXX................",
"oooooooo....XXXXooooooooooooooooXXXX........oooooooooooooooooooo",
"oooooooo....XXXXooooooooooooooooXXXX........oooooooooooooooooooo",
"oooooooo....XXXXooooooooooooooooXXXX........oooooooooooooooooooo",
"oooooooo....XXXXooooooooooooooooXXXX........oooooooooooooooooooo",
"ooooooooXXXXooooooooooooXXXXXXXXoooo....ooooooooooooooooXXXXXXXX",
"ooooooooXXXXooooooooooooXXXXXXXXoooo....ooooooooooooooooXXXXXXXX",
"ooooooooXXXXooooooooooooXXXXXXXXoooo....ooooooooooooooooXXXXXXXX",
"ooooooooXXXXooooooooooooXXXXXXXXoooo....ooooooooooooooooXXXXXXXX",
"ooooXXXXXXXXooooXXXXXXXXXXXXXXXXXXXX....ooooXXXXXXXXXXXXooooXXXX",
"ooooXXXXXXXXooooXXXXXXXXXXXXXXXXXXXX....ooooXXXXXXXXXXXXooooXXXX",
"ooooXXXXXXXXooooXXXXXXXXXXXXXXXXXXXX....ooooXXXXXXXXXXXXooooXXXX",
"ooooXXXXXXXXooooXXXXXXXXXXXXXXXXXXXX....ooooXXXXXXXXXXXXooooXXXX",
"XXXXXXXXXXXX....XXXXXXXXXXXXXXXX........XXXXXXXXXXXXXXXXXXXXXXXX",
"XXXXXXXXXXXX....XXXXXXXXXXXXXXXX........XXXXXXXXXXXXXXXXXXXXXXXX",
"XXXXXXXXXXXX....XXXXXXXXXXXXXXXX........XXXXXXXXXXXXXXXXXXXXXXXX",
"XXXXXXXXXXXX....XXXXXXXXXXXXXXXX........XXXXXXXXXXXXXXXXXXXXXXXX"
};
