/* XPM */
static char * chest_01_xpm[] = {
"64 64 17 1",
" 	c #A8D04F",
".	c #75A443",
"+	c #88C448",
"@	c #DEE863",
"#	c #21110D",
"$	c #503625",
"%	c #677598",
"&	c #755338",
"*	c #B6BEC8",
"=	c #342319",
"-	c #414B66",
";	c #242A3D",
">	c #7B993B",
",	c #597932",
"'	c #557833",
")	c #639036",
"!	c #A3AA49",
"    ....    ............++++....@@@@++++    ++++    ............",
"    ....    ............++++....@@@@++++    ++++    ............",
"    ....    ............++++....@@@@++++    ++++    ............",
"    ....    ............++++....@@@@++++    ++++    ............",
"    ....################################################....    ",
"    ....################################################....    ",
"    ....################################################....    ",
"    ....################################################....    ",
"    ####$$$$%%%%%%%%$$$$$$$$$$$$$$$$$$$$$$$$%%%%%%%%$$$$####    ",
"    ####$$$$%%%%%%%%$$$$$$$$$$$$$$$$$$$$$$$$%%%%%%%%$$$$####    ",
"    ####$$$$%%%%%%%%$$$$$$$$$$$$$$$$$$$$$$$$%%%%%%%%$$$$####    ",
"    ####$$$$%%%%%%%%$$$$$$$$$$$$$$$$$$$$$$$$%%%%%%%%$$$$####    ",
"....####&&&&********&&&&&&&&&&&&&&&&&&&&&&&&********&&&&####    ",
"....####&&&&********&&&&&&&&&&&&&&&&&&&&&&&&********&&&&####    ",
"....####&&&&********&&&&&&&&&&&&&&&&&&&&&&&&********&&&&####    ",
"....####&&&&********&&&&&&&&&&&&&&&&&&&&&&&&********&&&&####    ",
"....####&&&&********&&&&&&&&&&&&&&&&&&&&&&&&********&&&&####    ",
"....####&&&&********&&&&&&&&&&&&&&&&&&&&&&&&********&&&&####    ",
"....####&&&&********&&&&&&&&&&&&&&&&&&&&&&&&********&&&&####    ",
"....####&&&&********&&&&&&&&&&&&&&&&&&&&&&&&********&&&&####    ",
"    ####&&&&********&&&&&&&&&&&&&&&&&&&&&&&&********&&&&####....",
"    ####&&&&********&&&&&&&&&&&&&&&&&&&&&&&&********&&&&####....",
"    ####&&&&********&&&&&&&&&&&&&&&&&&&&&&&&********&&&&####....",
"    ####&&&&********&&&&&&&&&&&&&&&&&&&&&&&&********&&&&####....",
"....####&&&&********&&&&&&&&&&&&&&&&&&&&&&&&********&&&&####....",
"....####&&&&********&&&&&&&&&&&&&&&&&&&&&&&&********&&&&####....",
"....####&&&&********&&&&&&&&&&&&&&&&&&&&&&&&********&&&&####....",
"....####&&&&********&&&&&&&&&&&&&&&&&&&&&&&&********&&&&####....",
"++++####$$$$%%%%%%%%$$$$$$$$$$$$$$$$$$$$$$$$%%%%%%%%$$$$####    ",
"++++####$$$$%%%%%%%%$$$$$$$$$$$$$$$$$$$$$$$$%%%%%%%%$$$$####    ",
"++++####$$$$%%%%%%%%$$$$$$$$$$$$$$$$$$$$$$$$%%%%%%%%$$$$####    ",
"++++####$$$$%%%%%%%%$$$$$$$$$$$$$$$$$$$$$$$$%%%%%%%%$$$$####    ",
"....####%%%%%%%%%%%%%%%%****************%%%%%%%%%%%%%%%%####    ",
"....####%%%%%%%%%%%%%%%%****************%%%%%%%%%%%%%%%%####    ",
"....####%%%%%%%%%%%%%%%%****************%%%%%%%%%%%%%%%%####    ",
"....####%%%%%%%%%%%%%%%%****************%%%%%%%%%%%%%%%%####    ",
"    ####====--------====----;;;;;;;;----====--------====####    ",
"    ####====--------====----;;;;;;;;----====--------====####    ",
"    ####====--------====----;;;;;;;;----====--------====####    ",
"    ####====--------====----;;;;;;;;----====--------====####    ",
">>>>####====%%%%%%%%$$$$%%%%;;;;;;;;%%%%$$$$%%%%%%%%====####>>>>",
">>>>####====%%%%%%%%$$$$%%%%;;;;;;;;%%%%$$$$%%%%%%%%====####>>>>",
">>>>####====%%%%%%%%$$$$%%%%;;;;;;;;%%%%$$$$%%%%%%%%====####>>>>",
">>>>####====%%%%%%%%$$$$%%%%;;;;;;;;%%%%$$$$%%%%%%%%====####>>>>",
">>>>####====%%%%%%%%$$$$%%%%%%%%%%%%%%%%$$$$%%%%%%%%====####>>>>",
">>>>####====%%%%%%%%$$$$%%%%%%%%%%%%%%%%$$$$%%%%%%%%====####>>>>",
">>>>####====%%%%%%%%$$$$%%%%%%%%%%%%%%%%$$$$%%%%%%%%====####>>>>",
">>>>####====%%%%%%%%$$$$%%%%%%%%%%%%%%%%$$$$%%%%%%%%====####>>>>",
",,,,####====%%%%%%%%$$$$$$$$$$$$$$$$$$$$$$$$%%%%%%%%====####''''",
",,,,####====%%%%%%%%$$$$$$$$$$$$$$$$$$$$$$$$%%%%%%%%====####''''",
",,,,####====%%%%%%%%$$$$$$$$$$$$$$$$$$$$$$$$%%%%%%%%====####''''",
",,,,####====%%%%%%%%$$$$$$$$$$$$$$$$$$$$$$$$%%%%%%%%====####''''",
">>>>>>>>####%%%%%%%%$$$$$$$$$$$$$$$$$$$$$$$$%%%%%%%%####>>>>>>>>",
">>>>>>>>####%%%%%%%%$$$$$$$$$$$$$$$$$$$$$$$$%%%%%%%%####>>>>>>>>",
">>>>>>>>####%%%%%%%%$$$$$$$$$$$$$$$$$$$$$$$$%%%%%%%%####>>>>>>>>",
">>>>>>>>####%%%%%%%%$$$$$$$$$$$$$$$$$$$$$$$$%%%%%%%%####>>>>>>>>",
"    ''''''''''''>>>>''''''''))))''''!!!!!!!!>>>>!!!!''''>>>>    ",
"    ''''''''''''>>>>''''''''))))''''!!!!!!!!>>>>!!!!''''>>>>    ",
"    ''''''''''''>>>>''''''''))))''''!!!!!!!!>>>>!!!!''''>>>>    ",
"    ''''''''''''>>>>''''''''))))''''!!!!!!!!>>>>!!!!''''>>>>    ",
"@@@@        ''''>>>>''''))))))))>>>>!!!!!!!!''''!!!!++++++++@@@@",
"@@@@        ''''>>>>''''))))))))>>>>!!!!!!!!''''!!!!++++++++@@@@",
"@@@@        ''''>>>>''''))))))))>>>>!!!!!!!!''''!!!!++++++++@@@@",
"@@@@        ''''>>>>''''))))))))>>>>!!!!!!!!''''!!!!++++++++@@@@"};
